<svg width="702" height="217" viewBox="0 0 702 217" fill="none" xmlns="http://www.w3.org/2000/svg">
<path d="M649.917 0.939453H52.4218C24.0112 0.939453 0.979858 23.9708 0.979858 52.3814V165.135C0.979858 193.546 24.0112 216.577 52.4218 216.577H649.917C678.328 216.577 701.359 193.546 701.359 165.135V52.3814C701.359 23.9708 678.328 0.939453 649.917 0.939453Z" fill="#F0F5F7"/>
<path d="M276.83 56.0828C284.58 56.0828 289.161 60.9174 289.161 69.1383C289.161 77.3774 284.598 82.2122 276.83 82.2122H268.047V56.0828H276.83ZM271.307 79.2788H276.612C282.533 79.2788 285.829 75.6571 285.829 69.1745C285.829 62.6377 282.552 59.0162 276.612 59.0162H271.307V79.2788Z" fill="#333333"/>
<path d="M293.64 72.7962C293.64 66.7844 297.152 63.0542 302.368 63.0542C307.564 63.0542 311.077 66.7844 311.077 72.7962C311.077 78.7897 307.564 82.5381 302.368 82.5381C297.152 82.5381 293.64 78.7897 293.64 72.7962ZM307.872 72.7962C307.872 68.3596 305.699 65.8247 302.368 65.8247C299.036 65.8247 296.845 68.3596 296.845 72.7962C296.845 77.2327 299.036 79.7676 302.368 79.7676C305.699 79.7676 307.872 77.2325 307.872 72.7962Z" fill="#333333"/>
<path d="M334.805 82.2121H331.6L327.345 67.6353H327.272L323.035 82.2121H319.83L314.56 63.3799H317.693L321.46 78.6992H321.532L325.787 63.3799H328.83L333.103 78.6992H333.175L336.942 63.3799H340.056L334.805 82.2121Z" fill="#333333"/>
<path d="M344.481 63.38H347.45V66.3859H347.523C348.573 64.3579 350.583 63.0542 353.498 63.0542C357.627 63.0542 360.017 65.716 360.017 69.9895V82.2122H356.866V70.5507C356.866 67.5086 355.436 65.8428 352.539 65.8428C349.569 65.8428 347.631 67.9433 347.631 71.1301V82.2122H344.481V63.38Z" fill="#333333"/>
<path d="M366.035 56.0828H369.186V82.2122H366.035V56.0828Z" fill="#333333"/>
<path d="M374.372 72.7962C374.372 66.7844 377.885 63.0542 383.1 63.0542C388.297 63.0542 391.809 66.7844 391.809 72.7962C391.809 78.7897 388.297 82.5381 383.1 82.5381C377.885 82.5381 374.372 78.7897 374.372 72.7962ZM388.604 72.7962C388.604 68.3596 386.431 65.8247 383.1 65.8247C379.768 65.8247 377.577 68.3596 377.577 72.7962C377.577 77.2327 379.768 79.7676 383.1 79.7676C386.431 79.7676 388.604 77.2325 388.604 72.7962Z" fill="#333333"/>
<path d="M396.071 76.8884C396.071 73.6652 398.552 71.6373 402.898 71.3838L408.294 71.0759V69.5004C408.294 67.2007 406.773 65.8247 404.165 65.8247C401.739 65.8247 400.218 66.9653 399.819 68.8123H396.777C396.995 65.553 399.783 63.0542 404.238 63.0542C408.656 63.0542 411.445 65.4443 411.445 69.1927V82.2122H408.457V78.9708H408.384C407.262 81.1257 404.871 82.5381 402.336 82.5381C398.588 82.5381 396.071 80.2746 396.071 76.8884ZM408.294 75.0595V73.5204L403.26 73.8283C400.725 73.9912 399.276 75.1139 399.276 76.8884C399.276 78.6812 400.779 79.8582 403.042 79.8582C406.012 79.8582 408.294 77.7758 408.294 75.0595Z" fill="#333333"/>
<path d="M416.376 72.7962C416.376 66.893 419.618 63.0542 424.362 63.0542C427.06 63.0542 429.233 64.376 430.355 66.4403H430.428V56.0828H433.579V82.2122H430.573V79.0253H430.518C429.305 81.1981 427.15 82.5381 424.434 82.5381C419.636 82.5381 416.376 78.6993 416.376 72.7962ZM419.599 72.7962C419.599 77.0696 421.7 79.7676 425.032 79.7676C428.273 79.7676 430.446 77.0152 430.446 72.7962C430.446 68.5952 428.273 65.8247 425.032 65.8247C421.7 65.8247 419.599 68.5408 419.599 72.7962Z" fill="#333333"/>
<path d="M448.223 72.7962C448.223 66.7844 451.736 63.0542 456.951 63.0542C462.148 63.0542 465.66 66.7844 465.66 72.7962C465.66 78.7897 462.148 82.5381 456.951 82.5381C451.736 82.5381 448.223 78.7897 448.223 72.7962ZM462.455 72.7962C462.455 68.3596 460.283 65.8247 456.951 65.8247C453.619 65.8247 451.428 68.3596 451.428 72.7962C451.428 77.2327 453.619 79.7676 456.951 79.7676C460.283 79.7676 462.455 77.2325 462.455 72.7962Z" fill="#333333"/>
<path d="M470.683 63.38H473.653V66.3859H473.725C474.775 64.3579 476.785 63.0542 479.701 63.0542C483.829 63.0542 486.219 65.716 486.219 69.9895V82.2122H483.069V70.5507C483.069 67.5086 481.638 65.8428 478.741 65.8428C475.771 65.8428 473.834 67.9433 473.834 71.1301V82.2122H470.683V63.38Z" fill="#333333"/>
<path d="M505.698 58.835V63.38H509.356V65.9695H505.698V77.16C505.698 78.8803 506.423 79.659 508.034 79.659C508.396 79.659 509.121 79.6045 509.338 79.5684V82.2122C508.958 82.3027 508.089 82.3569 507.346 82.3569C503.888 82.3569 502.548 80.9446 502.548 77.3231V65.9695H499.741V63.38H502.548V58.835H505.698Z" fill="#333333"/>
<path d="M514.723 56.0828H517.874V66.3859H517.946C518.996 64.2854 521.061 63.0542 523.922 63.0542C528.05 63.0542 530.549 65.8428 530.549 70.0437V82.2122H527.398V70.6232C527.398 67.6354 525.895 65.8428 522.944 65.8428C519.811 65.8428 517.874 67.9794 517.874 71.2388V82.2122H514.723V56.0828Z" fill="#333333"/>
<path d="M551.995 76.8159C551.452 80.1117 548.265 82.5381 544.154 82.5381C538.758 82.5381 535.481 78.7897 535.481 72.8685C535.481 67.0197 538.812 63.0542 544.009 63.0542C549.098 63.0542 552.23 66.7482 552.23 72.4521V73.6472H538.722V73.8283C538.722 77.4317 540.841 79.8038 544.227 79.8038C546.617 79.8038 548.373 78.5906 548.898 76.8159H551.995ZM538.74 71.1845H548.971C548.898 68.0338 546.925 65.7884 543.955 65.7884C541.003 65.7884 538.939 68.0519 538.74 71.1845Z" fill="#333333"/>
<path d="M284.267 103.148H292.418L310.068 151.752H302.153L297.707 138.615H278.979L274.5 151.752H266.584L284.267 103.148ZM281 132.553H295.652L288.41 111.198H288.276L281 132.553Z" fill="#333333"/>
<path d="M317.999 116.318H325.274V122.414H325.443C327.565 118.204 331.472 115.644 336.524 115.644C345.551 115.644 351.344 122.717 351.344 134.035V134.068C351.344 145.352 345.517 152.459 336.625 152.459C331.607 152.459 327.531 149.899 325.443 145.79H325.274V163.54H317.999V116.318ZM343.934 134.068V134.035C343.934 126.49 340.33 121.875 334.638 121.875C329.114 121.875 325.241 126.658 325.241 134.035V134.068C325.241 141.411 329.148 146.194 334.638 146.194C340.364 146.194 343.934 141.546 343.934 134.068Z" fill="#333333"/>
<path d="M360.421 116.318H367.696V122.414H367.864C369.986 118.204 373.893 115.644 378.946 115.644C387.973 115.644 393.766 122.717 393.766 134.035V134.068C393.766 145.352 387.939 152.459 379.047 152.459C374.028 152.459 369.953 149.899 367.864 145.79H367.696V163.54H360.421V116.318ZM386.356 134.068V134.035C386.356 126.49 382.752 121.875 377.06 121.875C371.536 121.875 367.662 126.658 367.662 134.035V134.068C367.662 141.411 371.569 146.194 377.06 146.194C382.786 146.194 386.356 141.546 386.356 134.068Z" fill="#333333"/>
<path d="M418.99 138.817L418.956 138.312H426.299L426.367 138.75C427.04 143.23 431.52 146.026 438.021 146.026C444.521 146.026 448.63 143.095 448.63 138.548V138.514C448.63 134.607 445.97 132.485 439.536 131.071L434.248 129.959C424.716 127.938 420.102 123.559 420.102 116.351V116.318C420.135 108.032 427.444 102.34 437.717 102.34C447.856 102.34 454.794 107.863 455.3 116.015L455.333 116.587H447.99L447.957 116.116C447.283 111.602 443.376 108.874 437.616 108.874C431.587 108.908 427.748 111.771 427.748 116.015V116.048C427.748 119.686 430.509 121.909 436.572 123.223L441.894 124.334C451.931 126.456 456.243 130.532 456.243 138.043V138.076C456.243 146.935 449.237 152.56 437.717 152.56C426.804 152.56 419.596 147.373 418.99 138.817Z" fill="#333333"/>
<path d="M467.643 142.422V122.111H462.557V116.318H467.643V107.089H475.087V116.318H481.722V122.111H475.087V141.984C475.087 145.588 476.703 146.665 479.769 146.665C480.543 146.665 481.183 146.598 481.722 146.531V152.156C480.88 152.291 479.499 152.459 478.017 152.459C471.011 152.459 467.643 149.495 467.643 142.422Z" fill="#333333"/>
<path d="M488.743 134.035V133.967C488.743 122.65 495.446 115.644 505.517 115.644C515.621 115.644 522.358 122.616 522.358 133.967V134.035C522.358 145.453 515.689 152.459 505.55 152.459C495.378 152.459 488.743 145.419 488.743 134.035ZM514.914 134.035V133.967C514.914 126.22 511.209 121.741 505.517 121.741C499.925 121.741 496.187 126.22 496.187 133.967V134.035C496.187 141.882 499.892 146.362 505.584 146.362C511.276 146.362 514.914 141.849 514.914 134.035Z" fill="#333333"/>
<path d="M531.434 116.318H538.709V122.38H538.877C540.023 118.238 542.987 115.644 547.028 115.644C548.073 115.644 548.982 115.812 549.555 115.914V122.684C548.982 122.448 547.702 122.279 546.287 122.279C541.606 122.279 538.709 125.345 538.709 130.633V151.752H531.434V116.318Z" fill="#333333"/>
<path d="M554.42 134.169V134.136C554.42 123.054 560.819 115.644 570.756 115.644C580.692 115.644 586.788 122.785 586.788 133.428V135.887H561.695C561.83 142.59 565.501 146.497 571.294 146.497C575.606 146.497 578.469 144.274 579.378 141.613L579.479 141.344H586.384L586.317 141.714C585.172 147.339 579.715 152.459 571.126 152.459C560.718 152.459 554.42 145.352 554.42 134.169ZM561.796 130.734H579.58C578.974 124.604 575.538 121.606 570.789 121.606C566.074 121.606 562.436 124.806 561.796 130.734Z" fill="#333333"/>
<path d="M201.761 93.5167C197.224 96.6696 194.14 99.837 192.509 103.017C190.876 106.199 190.061 109.642 190.061 113.347C190.061 116.28 190.545 118.962 191.513 121.396C192.48 123.831 193.849 126.14 195.62 128.324C197.39 130.51 200.35 132.68 204.499 134.838C202.894 139.54 200.404 144.338 197.031 149.234C193.656 154.129 190.601 157.601 187.862 159.647C185.124 161.694 182.511 162.717 180.021 162.717C178.03 162.717 175.346 162.082 171.973 160.809L170.396 160.228L167.824 159.149C165.999 158.597 163.979 158.319 161.767 158.319C159.498 158.319 156.955 158.817 154.133 159.813L152.142 160.56L149.653 161.555C147.661 162.33 145.67 162.717 143.679 162.717C139.474 162.717 134.966 159.771 130.154 153.88C125.341 147.989 121.704 141.656 119.243 134.879C116.781 128.104 115.551 121.258 115.551 114.343C115.551 105.438 118.081 98.0257 123.143 92.1061C128.204 86.1877 135.077 83.228 143.762 83.228C146.915 83.228 149.873 83.8087 152.64 84.9702L154.548 85.717L156.54 86.547C158.309 87.2665 159.72 87.6254 160.771 87.6254C162.319 87.6254 163.869 87.3222 165.418 86.7127L168.073 85.717L169.982 84.9702C173.079 83.8087 176.508 83.228 180.27 83.228C189.176 83.228 196.339 86.6584 201.761 93.5167ZM180.685 53.9761C180.795 55.1933 180.851 56.1333 180.851 56.797C180.851 60.2275 179.855 63.7669 177.864 67.4177C175.873 71.0686 173.272 73.9041 170.064 75.9227C166.856 77.9425 163.315 78.9513 159.444 78.9513C159.278 77.6237 159.195 76.6565 159.195 76.047C159.195 73.1157 160.066 70.0317 161.808 66.7955C163.551 63.5595 165.916 60.8085 168.903 58.5396C171.89 56.2721 175.263 54.8344 179.025 54.2249C179.357 54.1706 179.91 54.0876 180.685 53.9761Z" fill="#333333"/>
</svg>
