<svg width="701" height="217" viewBox="0 0 701 217" fill="none" xmlns="http://www.w3.org/2000/svg">
<path d="M51.9217 0.939453H649.417C677.809 0.939453 700.859 23.9898 700.859 52.3814V165.135C700.859 193.527 677.809 216.577 649.417 216.577H51.9217C23.5301 216.577 0.479736 193.527 0.479736 165.135V52.3814C0.479736 23.9898 23.5302 0.939453 51.9217 0.939453Z" fill="#F0F5F7"/>
<path d="M276.069 72.5656C276.069 75.7901 275.114 78.3585 273.201 80.2735C271.029 82.5509 268.199 83.6896 264.719 83.6896C261.386 83.6896 258.552 82.5359 256.222 80.2246C253.888 77.9133 252.723 75.0478 252.723 71.6297C252.723 68.2097 253.888 65.3461 256.222 63.0348C258.552 60.7235 261.386 59.5679 264.719 59.5679C266.373 59.5679 267.955 59.8911 269.458 60.5357C270.961 61.1822 272.168 62.0408 273.07 63.1156L271.04 65.1468C269.511 63.3204 267.406 62.4072 264.719 62.4072C262.288 62.4072 260.187 63.2603 258.413 64.9702C256.639 66.6803 255.752 68.8993 255.752 71.6297C255.752 74.3601 256.639 76.579 258.413 78.2893C260.187 79.9991 262.288 80.8522 264.719 80.8522C267.297 80.8522 269.447 79.9933 271.168 78.2743C272.285 77.154 272.931 75.5966 273.103 73.597H264.719V70.8235H275.907C276.016 71.4269 276.069 72.0057 276.069 72.5656Z" fill="#333333"/>
<path d="M293.807 62.9221H283.292V70.2428H292.774V73.0167H283.292V80.3373H293.807V83.1747H280.327V60.0847H293.807V62.9221Z" fill="#333333"/>
<path d="M306.318 83.1747H303.349V62.9221H296.9V60.0847H312.767V62.9221H306.318V83.1747Z" fill="#333333"/>
<path d="M324.248 83.1747V60.0847H327.213V83.1747H324.248Z" fill="#333333"/>
<path d="M340.374 83.1747H337.405V62.9221H330.957V60.0847H346.823V62.9221H340.374V83.1747Z" fill="#333333"/>
<path d="M376.86 80.1907C374.59 82.5247 371.768 83.6896 368.393 83.6896C365.019 83.6896 362.196 82.5247 359.93 80.1907C357.66 77.859 356.529 75.0047 356.529 71.6297C356.529 68.2547 357.66 65.4004 359.93 63.0687C362.196 60.7347 365.018 59.5679 368.393 59.5679C371.749 59.5679 374.564 60.7405 376.845 63.0837C379.123 65.4269 380.262 68.2755 380.262 71.6297C380.262 75.0047 379.126 77.859 376.86 80.1907ZM362.121 78.2573C363.831 79.9879 365.92 80.8522 368.393 80.8522C370.866 80.8522 372.959 79.9879 374.666 78.2573C376.375 76.5267 377.233 74.3166 377.233 71.6297C377.233 68.9428 376.375 66.7327 374.666 65.0021C372.959 63.2715 370.866 62.4072 368.393 62.4072C365.92 62.4072 363.831 63.2715 362.121 65.0021C360.415 66.7327 359.558 68.9428 359.558 71.6297C359.558 74.3166 360.415 76.5267 362.121 78.2573Z" fill="#333333"/>
<path d="M384.425 83.1747V60.0847H388.037L399.259 78.0468H399.387L399.259 73.597V60.0847H402.228V83.1747H399.131L387.391 64.3425H387.263L387.391 68.7923V83.1747H384.425Z" fill="#333333"/>
<path d="M355.797 116.854C351.236 116.854 347.1 118.601 344.118 121.548C341.183 124.45 339.367 128.515 339.367 133.221C339.367 138.198 341.425 142.483 344.7 145.419C347.627 148.043 351.525 149.589 355.797 149.589C359.813 149.589 363.5 148.222 366.359 145.877C369.943 142.938 372.226 138.463 372.226 133.221C372.226 129.339 370.99 125.893 368.91 123.177C365.907 119.255 361.144 116.854 355.797 116.854ZM355.797 143.141C350.837 143.141 346.559 139.049 346.559 133.221C346.559 127.331 350.837 123.302 355.797 123.302C360.756 123.302 365.034 127.331 365.034 133.221C365.034 139.049 360.756 143.141 355.797 143.141ZM319.955 116.854C316.561 116.854 313.402 117.821 310.779 119.531C306.408 122.381 303.526 127.292 303.526 133.221C303.526 137.933 305.37 142.025 308.346 144.939C311.322 147.853 315.429 149.589 319.955 149.589C323.709 149.589 327.175 148.395 329.946 146.325C333.857 143.403 336.385 138.737 336.385 133.221C336.385 130.076 335.574 127.217 334.159 124.8C331.308 119.928 326.006 116.854 319.955 116.854ZM319.955 143.141C314.995 143.141 310.717 139.049 310.717 133.221C310.717 127.331 314.995 123.302 319.955 123.302C324.916 123.302 329.193 127.331 329.193 133.221C329.193 139.049 324.915 143.141 319.955 143.141ZM277.32 121.876V128.819H293.936C293.44 132.725 292.138 135.577 290.154 137.561C287.736 139.979 283.954 142.645 277.32 142.645C267.091 142.645 259.093 134.399 259.093 124.169C259.093 113.94 267.091 105.694 277.32 105.694C282.839 105.694 286.869 107.864 289.844 110.654L294.742 105.756C290.588 101.788 285.071 98.75 277.32 98.75C272.561 98.75 268.058 100.066 264.188 102.354C256.665 106.801 251.529 114.918 251.529 124.169C251.529 133.713 256.994 142.049 264.907 146.394C268.611 148.429 272.852 149.589 277.32 149.589C284.884 149.589 290.588 147.109 295.052 142.459C299.64 137.871 301.066 131.424 301.066 126.216C301.066 124.604 300.942 123.116 300.694 121.876H277.32ZM451.682 127.269C450.318 123.611 446.164 116.854 437.67 116.854C434.042 116.854 430.678 118.082 428.023 120.257C424.507 123.137 422.233 127.676 422.233 133.221C422.233 142.397 429.177 149.589 438.476 149.589C445.978 149.589 450.318 145.001 452.116 142.335L446.536 138.615C444.676 141.343 442.134 143.141 438.476 143.141C434.819 143.141 432.214 141.467 430.54 138.181L452.426 129.13L451.682 127.269ZM429.363 132.725C429.177 126.401 434.261 123.178 437.918 123.178C440.77 123.178 443.188 124.604 443.994 126.65L436.351 129.824L429.363 132.725ZM411.569 148.597H418.761V100.486H411.569V148.597ZM399.789 120.512H399.541C397.929 118.59 394.829 116.854 390.923 116.854C387.139 116.854 383.501 118.392 380.682 120.958C377.406 123.942 375.238 128.317 375.238 133.283C375.238 139.018 378.168 143.954 382.364 146.849C384.882 148.586 387.855 149.589 390.923 149.589C394.829 149.589 397.929 147.853 399.541 145.869H399.789V148.225C399.789 154.487 396.441 157.835 391.047 157.835C386.646 157.835 383.917 154.673 382.802 152.007L376.54 154.611C378.338 158.951 383.112 164.283 391.047 164.283C399.479 164.283 406.609 159.323 406.609 147.233V117.845H399.789V120.512ZM391.544 143.141C386.584 143.141 382.43 138.987 382.43 133.283C382.43 127.517 386.584 123.302 391.544 123.302C396.442 123.302 400.285 127.517 400.285 133.283C400.285 138.987 396.442 143.141 391.544 143.141ZM485.37 100.487H468.163V148.597H475.343V130.369H485.37C489.947 130.369 494.478 128.465 497.503 125.1C499.74 122.614 501.153 119.33 501.153 115.428C501.153 111.583 499.78 108.337 497.599 105.864C494.574 102.433 489.995 100.487 485.37 100.487ZM485.555 123.674H475.343V107.183H485.555C490.924 107.183 493.973 111.628 493.973 115.428C493.973 119.157 490.924 123.674 485.555 123.674ZM529.933 116.765C524.734 116.765 519.349 119.055 517.121 124.131L523.496 126.792C524.858 124.131 527.395 123.264 530.057 123.264C533.77 123.264 537.546 125.492 537.608 129.453V129.948C536.308 129.206 533.523 128.092 530.119 128.092C527.164 128.092 524.186 128.79 521.751 130.148C518.526 131.947 516.255 134.902 516.255 138.923C516.255 142.414 517.912 145.232 520.435 147.08C522.565 148.638 525.311 149.507 528.2 149.507C533.028 149.507 535.689 147.341 537.361 144.803H537.608V148.517H544.54V130.072C544.54 125.002 542.293 121.262 538.745 119.06C536.317 117.552 533.278 116.765 529.933 116.765ZM529.067 143.132C526.715 143.132 523.434 141.956 523.434 139.047C523.434 135.333 527.519 133.91 531.047 133.91C534.204 133.91 535.689 134.591 537.608 135.519C537.051 139.975 533.214 143.132 529.067 143.132ZM569.793 117.817L566.385 126.453L561.561 138.675H561.313L552.772 117.817H545.035L551.215 131.878L557.847 146.969L550.544 163.185H558.033L572.04 131.001L577.777 117.817H569.793ZM505.114 148.597H512.293V100.487H505.114V148.597Z" fill="#333333"/>
<path d="M197.089 91.9708L139.901 58.417C136.976 56.701 133.52 57.6822 131.732 60.0939L180.166 108.81L197.089 91.9708Z" fill="url(#paint0_linear_644_1926)"/>
<path d="M130.524 153.555C130.524 154.912 130.939 156.123 131.629 157.11L180.166 108.811L131.732 60.094C130.982 61.105 130.524 62.3656 130.524 63.7871V153.555Z" fill="url(#paint1_linear_644_1926)"/>
<path d="M196.8 125.541L216.399 114.041C220.5 111.636 220.5 105.707 216.399 103.301L197.089 91.9709L180.166 108.811L196.8 125.541Z" fill="url(#paint2_linear_644_1926)"/>
<path d="M131.628 157.11C133.385 159.624 136.92 160.674 139.901 158.926L196.799 125.541L180.166 108.811L131.628 157.11Z" fill="url(#paint3_linear_644_1926)"/>
<defs>
<linearGradient id="paint0_linear_644_1926" x1="54.2465" y1="-10.0145" x2="172.203" y2="86.8967" gradientUnits="userSpaceOnUse">
<stop stop-color="#32A071"/>
<stop offset="0.0685" stop-color="#2DA771"/>
<stop offset="0.4762" stop-color="#15CF74"/>
<stop offset="0.8009" stop-color="#06E775"/>
<stop offset="1" stop-color="#00F076"/>
</linearGradient>
<linearGradient id="paint1_linear_644_1926" x1="214.001" y1="108.116" x2="125.924" y2="108.636" gradientUnits="userSpaceOnUse">
<stop stop-color="#00A0FF"/>
<stop offset="0.0066" stop-color="#00A1FF"/>
<stop offset="0.2601" stop-color="#00BEFF"/>
<stop offset="0.5122" stop-color="#00D2FF"/>
<stop offset="0.7604" stop-color="#00DFFF"/>
<stop offset="1" stop-color="#00E3FF"/>
</linearGradient>
<linearGradient id="paint2_linear_644_1926" x1="226.337" y1="111.061" x2="146.833" y2="104.826" gradientUnits="userSpaceOnUse">
<stop stop-color="#FFE000"/>
<stop offset="0.4087" stop-color="#FFBD00"/>
<stop offset="0.7754" stop-color="#FFA500"/>
<stop offset="1" stop-color="#FF9C00"/>
</linearGradient>
<linearGradient id="paint3_linear_644_1926" x1="215.985" y1="98.9189" x2="62.9534" y2="200.507" gradientUnits="userSpaceOnUse">
<stop stop-color="#FF3A44"/>
<stop offset="1" stop-color="#C31162"/>
</linearGradient>
</defs>
</svg>
