<svg width="27" height="20" viewBox="0 0 27 20" fill="none" xmlns="http://www.w3.org/2000/svg">
<path d="M6.46591 17.0938C5.80608 17.0938 5.27273 17.6315 5.27273 18.2969C5.27273 18.9622 5.80608 19.5 6.46591 19.5H25.5568C26.2166 19.5 26.75 18.9622 26.75 18.2969C26.75 17.6315 26.2166 17.0938 25.5568 17.0938H6.46591ZM1.69318 8.67188C1.03335 8.67188 0.499998 9.20967 0.499998 9.875C0.499998 10.5403 1.03335 11.0781 1.69318 11.0781H25.5568C26.2166 11.0781 26.75 10.5403 26.75 9.875C26.75 9.20967 26.2166 8.67188 25.5568 8.67188H1.69318ZM4.07954 0.25C3.41971 0.25 2.88636 0.787797 2.88636 1.45312C2.88636 2.11845 3.41971 2.65625 4.07954 2.65625H25.5568C26.2166 2.65625 26.75 2.11845 26.75 1.45312C26.75 0.787797 26.2166 0.25 25.5568 0.25H4.07954Z" fill="white"/>
</svg>
